<?xml version="1.0" encoding="UTF-8"?>
<!--
  NCF Icons Sprite · v2.0
  
  Usage:
    <svg width="24" height="24"><use href="icons-sprite.svg#balance"/></svg>
  
  Pour styler la couleur, le SVG parent doit avoir une "color" CSS
  (les icônes utilisent stroke="currentColor").
-->
<svg xmlns="http://www.w3.org/2000/svg" style="display:none">
  <defs>
    <symbol id="company" viewBox="0 0 24 24" fill="none" stroke="currentColor" stroke-width="1.5" stroke-linecap="round" stroke-linejoin="round">
      <!-- Signature NCF : équerres aux coins opposés -->
      <path d="M 1 4 L 1 1 L 4 1" stroke-width="1"/>
      <path d="M 20 23 L 23 23 L 23 20" stroke-width="1"/>
      <!-- Façade du bâtiment -->
      <rect x="5" y="6" width="14" height="14"/>
      <!-- Fenêtres : 6 carreaux -->
      <rect x="7.5" y="9" width="2" height="2"/>
      <rect x="11" y="9" width="2" height="2"/>
      <rect x="14.5" y="9" width="2" height="2"/>
      <rect x="7.5" y="13" width="2" height="2"/>
      <rect x="14.5" y="13" width="2" height="2"/>
      <!-- Porte centrale -->
      <rect x="11" y="13" width="2" height="7"/>
    </symbol>
    <symbol id="contract" viewBox="0 0 24 24" fill="none" stroke="currentColor" stroke-width="1.5" stroke-linecap="round" stroke-linejoin="round">
      <!-- Signature NCF : équerres aux coins opposés -->
      <path d="M 1 4 L 1 1 L 4 1" stroke-width="1"/>
      <path d="M 20 23 L 23 23 L 23 20" stroke-width="1"/>
      <!-- Document de contrat -->
      <path d="M 6 4 L 14 4 L 18 8 L 18 20 L 6 20 Z"/>
      <path d="M 14 4 L 14 8 L 18 8"/>
      <!-- Trait de signature -->
      <line x1="9" y1="15" x2="15" y2="15" stroke-width="1"/>
      <!-- Croix de validation -->
      <path d="M 9 11 L 11 13 L 15 9" stroke-width="1"/>
    </symbol>
    <symbol id="finance" viewBox="0 0 24 24" fill="none" stroke="currentColor" stroke-width="1.5" stroke-linecap="round" stroke-linejoin="round">
      <!-- Signature NCF : équerres aux coins opposés -->
      <path d="M 1 4 L 1 1 L 4 1" stroke-width="1"/>
      <path d="M 20 23 L 23 23 L 23 20" stroke-width="1"/>
      <!-- Cercle euro stylisé : C avec deux barres -->
      <path d="M 17 8 Q 14 5 11 5 Q 6 5 6 12 Q 6 19 11 19 Q 14 19 17 16"/>
      <!-- Deux traits horizontaux du symbole € -->
      <line x1="4" y1="10.5" x2="13" y2="10.5"/>
      <line x1="4" y1="13.5" x2="13" y2="13.5"/>
    </symbol>
    <symbol id="balance" viewBox="0 0 24 24" fill="none" stroke="currentColor" stroke-width="1.5" stroke-linecap="round" stroke-linejoin="round">
      <!-- Signature NCF : équerres aux coins opposés -->
      <path d="M 1 4 L 1 1 L 4 1" stroke-width="1"/>
      <path d="M 20 23 L 23 23 L 23 20" stroke-width="1"/>
      <!-- Mât vertical -->
      <line x1="12" y1="6" x2="12" y2="19"/>
      <!-- Socle -->
      <line x1="9" y1="19" x2="15" y2="19"/>
      <!-- Fléau -->
      <line x1="5" y1="10" x2="19" y2="10"/>
      <!-- Plateaux carrés stylisés (style moderne strict) -->
      <line x1="5" y1="10" x2="5" y2="13"/>
      <line x1="3.5" y1="13" x2="6.5" y2="13"/>
      <line x1="19" y1="10" x2="19" y2="13"/>
      <line x1="17.5" y1="13" x2="20.5" y2="13"/>
    </symbol>
    <symbol id="calculator" viewBox="0 0 24 24" fill="none" stroke="currentColor" stroke-width="1.5" stroke-linecap="round" stroke-linejoin="round">
      <!-- Signature NCF : équerres aux coins opposés -->
      <path d="M 1 4 L 1 1 L 4 1" stroke-width="1"/>
      <path d="M 20 23 L 23 23 L 23 20" stroke-width="1"/>
      <!-- Corps de la calculatrice -->
      <rect x="6" y="4" width="12" height="16"/>
      <!-- Écran -->
      <line x1="8" y1="8" x2="16" y2="8"/>
      <!-- Touches : 3 points alignés (boutons) -->
      <circle cx="9" cy="12" r="0.6" fill="currentColor" stroke="none"/>
      <circle cx="12" cy="12" r="0.6" fill="currentColor" stroke="none"/>
      <circle cx="15" cy="12" r="0.6" fill="currentColor" stroke="none"/>
      <circle cx="9" cy="16" r="0.6" fill="currentColor" stroke="none"/>
      <circle cx="12" cy="16" r="0.6" fill="currentColor" stroke="none"/>
      <circle cx="15" cy="16" r="0.6" fill="currentColor" stroke="none"/>
    </symbol>
    <symbol id="chart" viewBox="0 0 24 24" fill="none" stroke="currentColor" stroke-width="1.5" stroke-linecap="round" stroke-linejoin="round">
      <!-- Signature NCF : équerres aux coins opposés -->
      <path d="M 1 4 L 1 1 L 4 1" stroke-width="1"/>
      <path d="M 20 23 L 23 23 L 23 20" stroke-width="1"/>
      <!-- Axes -->
      <line x1="5" y1="5" x2="5" y2="19"/>
      <line x1="5" y1="19" x2="19" y2="19"/>
      <!-- Courbe de croissance -->
      <path d="M 7 16 L 11 12 L 14 14 L 18 8"/>
    </symbol>
    <symbol id="comparable" viewBox="0 0 24 24" fill="none" stroke="currentColor" stroke-width="1.5" stroke-linecap="round" stroke-linejoin="round">
      <!-- Signature NCF : équerres aux coins opposés -->
      <path d="M 1 4 L 1 1 L 4 1" stroke-width="1"/>
      <path d="M 20 23 L 23 23 L 23 20" stroke-width="1"/>
      <!-- Carré gauche (entité A) -->
      <rect x="4" y="7" width="7" height="10"/>
      <!-- Carré droit (entité B) -->
      <rect x="13" y="7" width="7" height="10"/>
      <!-- Signe égal au centre, intercalé -->
      <line x1="11" y1="10.5" x2="13" y2="10.5" stroke-width="1"/>
      <line x1="11" y1="13.5" x2="13" y2="13.5" stroke-width="1"/>
    </symbol>
    <symbol id="data" viewBox="0 0 24 24" fill="none" stroke="currentColor" stroke-width="1.5" stroke-linecap="round" stroke-linejoin="round">
      <!-- Signature NCF : équerres aux coins opposés -->
      <path d="M 1 4 L 1 1 L 4 1" stroke-width="1"/>
      <path d="M 20 23 L 23 23 L 23 20" stroke-width="1"/>
      <!-- Cylindre de base de données : 3 ellipses empilées + côtés droits -->
      <ellipse cx="12" cy="6" rx="6" ry="2"/>
      <path d="M 6 6 L 6 12"/>
      <path d="M 18 6 L 18 12"/>
      <path d="M 6 12 Q 6 14 12 14 Q 18 14 18 12"/>
      <path d="M 6 12 L 6 18"/>
      <path d="M 18 12 L 18 18"/>
      <path d="M 6 18 Q 6 20 12 20 Q 18 20 18 18"/>
    </symbol>
    <symbol id="document" viewBox="0 0 24 24" fill="none" stroke="currentColor" stroke-width="1.5" stroke-linecap="round" stroke-linejoin="round">
      <!-- Signature NCF : équerres aux coins opposés -->
      <path d="M 1 4 L 1 1 L 4 1" stroke-width="1"/>
      <path d="M 20 23 L 23 23 L 23 20" stroke-width="1"/>
      <!-- Contour du document avec coin plié -->
      <path d="M 7 4 L 14 4 L 18 8 L 18 20 L 7 20 Z"/>
      <!-- Coin plié -->
      <path d="M 14 4 L 14 8 L 18 8"/>
      <!-- Lignes de texte -->
      <line x1="9" y1="13" x2="16" y2="13"/>
      <line x1="9" y1="16" x2="14" y2="16"/>
    </symbol>
    <symbol id="growth" viewBox="0 0 24 24" fill="none" stroke="currentColor" stroke-width="1.5" stroke-linecap="round" stroke-linejoin="round">
      <!-- Signature NCF : équerres aux coins opposés -->
      <path d="M 1 4 L 1 1 L 4 1" stroke-width="1"/>
      <path d="M 20 23 L 23 23 L 23 20" stroke-width="1"/>
      <!-- Flèche montante diagonale -->
      <path d="M 6 17 L 18 6"/>
      <!-- Pointe de la flèche -->
      <path d="M 12 6 L 18 6 L 18 12"/>
      <!-- Petite ligne de base discrète -->
      <line x1="5" y1="19" x2="19" y2="19"/>
    </symbol>
    <symbol id="holding" viewBox="0 0 24 24" fill="none" stroke="currentColor" stroke-width="1.5" stroke-linecap="round" stroke-linejoin="round">
      <!-- Signature NCF : équerres aux coins opposés -->
      <path d="M 1 4 L 1 1 L 4 1" stroke-width="1"/>
      <path d="M 20 23 L 23 23 L 23 20" stroke-width="1"/>
      <!-- Holding (carré du haut) -->
      <rect x="10" y="5" width="4" height="4"/>
      <!-- Filiales (3 carrés du bas) -->
      <rect x="5" y="16" width="4" height="4"/>
      <rect x="10" y="16" width="4" height="4"/>
      <rect x="15" y="16" width="4" height="4"/>
      <!-- Lignes de hiérarchie -->
      <line x1="12" y1="9" x2="12" y2="12.5"/>
      <line x1="7" y1="12.5" x2="17" y2="12.5"/>
      <line x1="7" y1="12.5" x2="7" y2="16"/>
      <line x1="12" y1="12.5" x2="12" y2="16"/>
      <line x1="17" y1="12.5" x2="17" y2="16"/>
    </symbol>
    <symbol id="methods" viewBox="0 0 24 24" fill="none" stroke="currentColor" stroke-width="1.5" stroke-linecap="round" stroke-linejoin="round">
      <!-- Signature NCF : équerres aux coins opposés -->
      <path d="M 1 4 L 1 1 L 4 1" stroke-width="1"/>
      <path d="M 20 23 L 23 23 L 23 20" stroke-width="1"/>
      <!-- Ligne de base -->
      <line x1="5" y1="19" x2="19" y2="19"/>
      <!-- Colonne 1 (la plus courte) -->
      <rect x="6" y="13" width="3" height="6"/>
      <!-- Colonne 2 (la plus haute) -->
      <rect x="10.5" y="6" width="3" height="13"/>
      <!-- Colonne 3 (moyenne) -->
      <rect x="15" y="10" width="3" height="9"/>
    </symbol>
    <symbol id="transmission" viewBox="0 0 24 24" fill="none" stroke="currentColor" stroke-width="1.5" stroke-linecap="round" stroke-linejoin="round">
      <!-- Signature NCF : équerres aux coins opposés -->
      <path d="M 1 4 L 1 1 L 4 1" stroke-width="1"/>
      <path d="M 20 23 L 23 23 L 23 20" stroke-width="1"/>
      <!-- Silhouette gauche : tête + buste -->
      <circle cx="7" cy="9" r="2"/>
      <path d="M 4 17 Q 4 13 7 13 Q 10 13 10 17"/>
      <!-- Silhouette droite -->
      <circle cx="17" cy="9" r="2"/>
      <path d="M 14 17 Q 14 13 17 13 Q 20 13 20 17"/>
      <!-- Flèche entre les deux -->
      <path d="M 10 19 L 14 19 M 12.5 17.5 L 14 19 L 12.5 20.5"/>
    </symbol>
    <symbol id="arrow" viewBox="0 0 24 24" fill="none" stroke="currentColor" stroke-width="1.5" stroke-linecap="round" stroke-linejoin="round">
      <!-- Signature NCF : équerres aux coins opposés -->
      <path d="M 1 4 L 1 1 L 4 1" stroke-width="1"/>
      <path d="M 20 23 L 23 23 L 23 20" stroke-width="1"/>
      <!-- Corps de la flèche -->
      <line x1="5" y1="12" x2="18" y2="12"/>
      <!-- Pointe -->
      <path d="M 14 8 L 18 12 L 14 16"/>
    </symbol>
    <symbol id="search" viewBox="0 0 24 24" fill="none" stroke="currentColor" stroke-width="1.5" stroke-linecap="round" stroke-linejoin="round">
      <!-- Signature NCF : équerres aux coins opposés -->
      <path d="M 1 4 L 1 1 L 4 1" stroke-width="1"/>
      <path d="M 20 23 L 23 23 L 23 20" stroke-width="1"/>
      <!-- Lentille -->
      <circle cx="11" cy="11" r="5"/>
      <!-- Manche -->
      <line x1="14.5" y1="14.5" x2="19" y2="19"/>
    </symbol>
    <symbol id="calendar" viewBox="0 0 24 24" fill="none" stroke="currentColor" stroke-width="1.5" stroke-linecap="round" stroke-linejoin="round">
      <!-- Signature NCF : équerres aux coins opposés -->
      <path d="M 1 4 L 1 1 L 4 1" stroke-width="1"/>
      <path d="M 20 23 L 23 23 L 23 20" stroke-width="1"/>
      <!-- Corps du calendrier -->
      <rect x="5" y="6" width="14" height="14"/>
      <!-- Ligne du haut (séparation en-tête) -->
      <line x1="5" y1="10" x2="19" y2="10"/>
      <!-- Anneaux de reliure -->
      <line x1="9" y1="4" x2="9" y2="7"/>
      <line x1="15" y1="4" x2="15" y2="7"/>
      <!-- Point central (jour sélectionné) -->
      <circle cx="12" cy="15" r="1.5"/>
    </symbol>
    <symbol id="clock" viewBox="0 0 24 24" fill="none" stroke="currentColor" stroke-width="1.5" stroke-linecap="round" stroke-linejoin="round">
      <!-- Signature NCF : équerres aux coins opposés -->
      <path d="M 1 4 L 1 1 L 4 1" stroke-width="1"/>
      <path d="M 20 23 L 23 23 L 23 20" stroke-width="1"/>
      <!-- Cadran -->
      <circle cx="12" cy="12" r="7"/>
      <!-- Aiguilles -->
      <line x1="12" y1="12" x2="12" y2="8"/>
      <line x1="12" y1="12" x2="15" y2="13.5"/>
    </symbol>
    <symbol id="pdf" viewBox="0 0 24 24" fill="none" stroke="currentColor" stroke-width="1.5" stroke-linecap="round" stroke-linejoin="round">
      <!-- Signature NCF : équerres aux coins opposés -->
      <path d="M 1 4 L 1 1 L 4 1" stroke-width="1"/>
      <path d="M 20 23 L 23 23 L 23 20" stroke-width="1"/>
      <!-- Document -->
      <path d="M 7 4 L 14 4 L 18 8 L 18 20 L 7 20 Z"/>
      <path d="M 14 4 L 14 8 L 18 8"/>
      <!-- Flèche de téléchargement -->
      <line x1="12.5" y1="11" x2="12.5" y2="16"/>
      <path d="M 10.5 14 L 12.5 16 L 14.5 14"/>
    </symbol>
    <symbol id="signature" viewBox="0 0 24 24" fill="none" stroke="currentColor" stroke-width="1.5" stroke-linecap="round" stroke-linejoin="round">
      <!-- Signature NCF : équerres aux coins opposés -->
      <path d="M 1 4 L 1 1 L 4 1" stroke-width="1"/>
      <path d="M 20 23 L 23 23 L 23 20" stroke-width="1"/>
      <!-- Plume / stylo en diagonale -->
      <path d="M 17 6 L 7 16"/>
      <!-- Pointe de la plume -->
      <path d="M 7 16 L 5 18 L 7 16 Z"/>
      <line x1="5" y1="18" x2="7" y2="16"/>
      <!-- Trait de signature paraphé en dessous -->
      <path d="M 6 20 Q 9 19 12 20 Q 15 21 18 20" stroke-width="1"/>
    </symbol>
    <symbol id="steps" viewBox="0 0 24 24" fill="none" stroke="currentColor" stroke-width="1.5" stroke-linecap="round" stroke-linejoin="round">
      <!-- Signature NCF : équerres aux coins opposés -->
      <path d="M 1 4 L 1 1 L 4 1" stroke-width="1"/>
      <path d="M 20 23 L 23 23 L 23 20" stroke-width="1"/>
      <!-- 3 marches d'escalier ascendantes -->
      <path d="M 5 19 L 5 15 L 10 15 L 10 11 L 15 11 L 15 7 L 20 7"/>
      <!-- Petits points sur chaque marche -->
      <circle cx="7" cy="17" r="0.5" fill="currentColor" stroke="none"/>
      <circle cx="12" cy="13" r="0.5" fill="currentColor" stroke="none"/>
      <circle cx="17" cy="9" r="0.5" fill="currentColor" stroke="none"/>
    </symbol>
    <symbol id="timeline" viewBox="0 0 24 24" fill="none" stroke="currentColor" stroke-width="1.5" stroke-linecap="round" stroke-linejoin="round">
      <!-- Signature NCF : équerres aux coins opposés -->
      <path d="M 1 4 L 1 1 L 4 1" stroke-width="1"/>
      <path d="M 20 23 L 23 23 L 23 20" stroke-width="1"/>
      <!-- Ligne horizontale centrale -->
      <line x1="5" y1="12" x2="19" y2="12"/>
      <!-- 4 points/jalons sur la ligne -->
      <circle cx="6" cy="12" r="1.5"/>
      <circle cx="10.5" cy="12" r="1.5"/>
      <circle cx="14.5" cy="12" r="1.5"/>
      <circle cx="18.5" cy="12" r="1.5"/>
      <!-- Lignes de jalonnement verticales courtes -->
      <line x1="6" y1="7" x2="6" y2="10" stroke-width="1"/>
      <line x1="14.5" y1="14" x2="14.5" y2="17" stroke-width="1"/>
    </symbol>
    <symbol id="conversation" viewBox="0 0 24 24" fill="none" stroke="currentColor" stroke-width="1.5" stroke-linecap="round" stroke-linejoin="round">
      <!-- Signature NCF : équerres aux coins opposés -->
      <path d="M 1 4 L 1 1 L 4 1" stroke-width="1"/>
      <path d="M 20 23 L 23 23 L 23 20" stroke-width="1"/>
      <!-- Bulle de dialogue -->
      <path d="M 5 7 L 17 7 Q 19 7 19 9 L 19 14 Q 19 16 17 16 L 10 16 L 7 19 L 7 16 Q 5 16 5 14 Z"/>
      <!-- Trois points de dialogue -->
      <circle cx="9" cy="11.5" r="0.5" fill="currentColor" stroke="none"/>
      <circle cx="12" cy="11.5" r="0.5" fill="currentColor" stroke="none"/>
      <circle cx="15" cy="11.5" r="0.5" fill="currentColor" stroke="none"/>
    </symbol>
    <symbol id="expert" viewBox="0 0 24 24" fill="none" stroke="currentColor" stroke-width="1.5" stroke-linecap="round" stroke-linejoin="round">
      <!-- Signature NCF : équerres aux coins opposés -->
      <path d="M 1 4 L 1 1 L 4 1" stroke-width="1"/>
      <path d="M 20 23 L 23 23 L 23 20" stroke-width="1"/>
      <!-- Tête -->
      <circle cx="12" cy="9" r="3"/>
      <!-- Buste -->
      <path d="M 6 19 Q 6 14 12 14 Q 18 14 18 19"/>
      <!-- Petit insigne discret sur le buste (un point central) -->
      <circle cx="12" cy="17" r="0.8" fill="currentColor" stroke="none"/>
    </symbol>
    <symbol id="meeting" viewBox="0 0 24 24" fill="none" stroke="currentColor" stroke-width="1.5" stroke-linecap="round" stroke-linejoin="round">
      <!-- Signature NCF : équerres aux coins opposés -->
      <path d="M 1 4 L 1 1 L 4 1" stroke-width="1"/>
      <path d="M 20 23 L 23 23 L 23 20" stroke-width="1"/>
      <!-- Table centrale (rectangle horizontal) -->
      <rect x="7" y="10" width="10" height="4"/>
      <!-- Personne haut -->
      <circle cx="12" cy="6" r="1.5"/>
      <!-- Personne bas -->
      <circle cx="12" cy="18" r="1.5"/>
      <!-- Personne gauche -->
      <circle cx="5" cy="12" r="1.5"/>
      <!-- Personne droite -->
      <circle cx="19" cy="12" r="1.5"/>
    </symbol>
    <symbol id="support" viewBox="0 0 24 24" fill="none" stroke="currentColor" stroke-width="1.5" stroke-linecap="round" stroke-linejoin="round">
      <!-- Signature NCF : équerres aux coins opposés -->
      <path d="M 1 4 L 1 1 L 4 1" stroke-width="1"/>
      <path d="M 20 23 L 23 23 L 23 20" stroke-width="1"/>
      <!-- Arc du casque -->
      <path d="M 6 14 L 6 12 Q 6 5 12 5 Q 18 5 18 12 L 18 14"/>
      <!-- Écouteur gauche -->
      <rect x="4" y="13" width="4" height="6"/>
      <!-- Écouteur droit -->
      <rect x="16" y="13" width="4" height="6"/>
    </symbol>
    <symbol id="certification" viewBox="0 0 24 24" fill="none" stroke="currentColor" stroke-width="1.5" stroke-linecap="round" stroke-linejoin="round">
      <!-- Signature NCF : équerres aux coins opposés -->
      <path d="M 1 4 L 1 1 L 4 1" stroke-width="1"/>
      <path d="M 20 23 L 23 23 L 23 20" stroke-width="1"/>
      <!-- Médaille (cercle principal) -->
      <circle cx="12" cy="10" r="5"/>
      <!-- Étoile/centre stylisé -->
      <circle cx="12" cy="10" r="1.5" fill="currentColor" stroke="none"/>
      <!-- Rubans pendants -->
      <path d="M 9.5 14.5 L 8 20 L 12 18 L 16 20 L 14.5 14.5"/>
    </symbol>
    <symbol id="independence" viewBox="0 0 24 24" fill="none" stroke="currentColor" stroke-width="1.5" stroke-linecap="round" stroke-linejoin="round">
      <!-- Signature NCF : équerres aux coins opposés -->
      <path d="M 1 4 L 1 1 L 4 1" stroke-width="1"/>
      <path d="M 20 23 L 23 23 L 23 20" stroke-width="1"/>
      <!-- Deux entités externes (carrés) -->
      <rect x="4" y="9" width="5" height="6"/>
      <rect x="15" y="9" width="5" height="6"/>
      <!-- Cercle central (NCF, tiers indépendant) -->
      <circle cx="12" cy="12" r="2.5"/>
      <!-- Pas de connexion : ce qui souligne l'indépendance -->
    </symbol>
    <symbol id="lock" viewBox="0 0 24 24" fill="none" stroke="currentColor" stroke-width="1.5" stroke-linecap="round" stroke-linejoin="round">
      <!-- Signature NCF : équerres aux coins opposés -->
      <path d="M 1 4 L 1 1 L 4 1" stroke-width="1"/>
      <path d="M 20 23 L 23 23 L 23 20" stroke-width="1"/>
      <!-- Corps du cadenas -->
      <rect x="6" y="12" width="12" height="8"/>
      <!-- Anse -->
      <path d="M 9 12 L 9 8 Q 9 5 12 5 Q 15 5 15 8 L 15 12"/>
    </symbol>
    <symbol id="quality" viewBox="0 0 24 24" fill="none" stroke="currentColor" stroke-width="1.5" stroke-linecap="round" stroke-linejoin="round">
      <!-- Signature NCF : équerres aux coins opposés -->
      <path d="M 1 4 L 1 1 L 4 1" stroke-width="1"/>
      <path d="M 20 23 L 23 23 L 23 20" stroke-width="1"/>
      <!-- Bouclier stylisé -->
      <path d="M 12 4 L 18 6 L 18 12 Q 18 17 12 20 Q 6 17 6 12 L 6 6 Z"/>
      <!-- Coche à l'intérieur -->
      <path d="M 9 12 L 11 14 L 15 10"/>
    </symbol>
    <symbol id="seal" viewBox="0 0 24 24" fill="none" stroke="currentColor" stroke-width="1.5" stroke-linecap="round" stroke-linejoin="round">
      <!-- Signature NCF : équerres aux coins opposés -->
      <path d="M 1 4 L 1 1 L 4 1" stroke-width="1"/>
      <path d="M 20 23 L 23 23 L 23 20" stroke-width="1"/>
      <!-- Cercle du sceau -->
      <circle cx="12" cy="12" r="7"/>
      <!-- Coche de validation -->
      <path d="M 9 12 L 11 14 L 15 10"/>
    </symbol>
    <symbol id="phone" viewBox="0 0 24 24" fill="none" stroke="currentColor" stroke-width="1.5" stroke-linecap="round" stroke-linejoin="round">
      <!-- Signature NCF : équerres aux coins opposés -->
      <path d="M 1 4 L 1 1 L 4 1" stroke-width="1"/>
      <path d="M 20 23 L 23 23 L 23 20" stroke-width="1"/>
      <!-- Combiné téléphone stylisé -->
      <path d="M 6 5 Q 5 5 5 6 L 5 8 Q 5 14 10 17 Q 13 19 16 19 L 18 19 Q 19 19 19 18 L 19 16 L 15 14 L 13 16 Q 10 14 8 11 L 10 9 L 8 5 Z"/>
    </symbol>
    <symbol id="mail" viewBox="0 0 24 24" fill="none" stroke="currentColor" stroke-width="1.5" stroke-linecap="round" stroke-linejoin="round">
      <!-- Signature NCF : équerres aux coins opposés -->
      <path d="M 1 4 L 1 1 L 4 1" stroke-width="1"/>
      <path d="M 20 23 L 23 23 L 23 20" stroke-width="1"/>
      <!-- Enveloppe -->
      <rect x="4" y="7" width="16" height="11"/>
      <!-- Rabat V -->
      <path d="M 4 8 L 12 13 L 20 8"/>
    </symbol>
    <symbol id="location" viewBox="0 0 24 24" fill="none" stroke="currentColor" stroke-width="1.5" stroke-linecap="round" stroke-linejoin="round">
      <!-- Signature NCF : équerres aux coins opposés -->
      <path d="M 1 4 L 1 1 L 4 1" stroke-width="1"/>
      <path d="M 20 23 L 23 23 L 23 20" stroke-width="1"/>
      <!-- Goutte d'épingle -->
      <path d="M 12 4 Q 18 4 18 10 Q 18 14 12 20 Q 6 14 6 10 Q 6 4 12 4 Z"/>
      <!-- Cercle intérieur -->
      <circle cx="12" cy="10" r="2"/>
    </symbol>
    <symbol id="family" viewBox="0 0 24 24" fill="none" stroke="currentColor" stroke-width="1.5" stroke-linecap="round" stroke-linejoin="round">
      <!-- Signature NCF : équerres aux coins opposés -->
      <path d="M 1 4 L 1 1 L 4 1" stroke-width="1"/>
      <path d="M 20 23 L 23 23 L 23 20" stroke-width="1"/>
      <!-- Parent (nœud sommet) -->
      <circle cx="12" cy="7" r="2"/>
      <!-- Trajet de connexion en T -->
      <line x1="12" y1="9" x2="12" y2="13"/>
      <line x1="7" y1="13" x2="17" y2="13"/>
      <line x1="7" y1="13" x2="7" y2="16"/>
      <line x1="17" y1="13" x2="17" y2="16"/>
      <!-- Enfants (nœuds bas) -->
      <circle cx="7" cy="18" r="2"/>
      <circle cx="17" cy="18" r="2"/>
    </symbol>
    <symbol id="staff" viewBox="0 0 24 24" fill="none" stroke="currentColor" stroke-width="1.5" stroke-linecap="round" stroke-linejoin="round">
      <!-- Signature NCF : équerres aux coins opposés -->
      <path d="M 1 4 L 1 1 L 4 1" stroke-width="1"/>
      <path d="M 20 23 L 23 23 L 23 20" stroke-width="1"/>
      <!-- Salarié gauche -->
      <circle cx="6" cy="9" r="1.5"/>
      <path d="M 4 19 L 4 13 Q 4 11 6 11 Q 8 11 8 13 L 8 19"/>
      <!-- Salarié centre -->
      <circle cx="12" cy="9" r="1.5"/>
      <path d="M 10 19 L 10 13 Q 10 11 12 11 Q 14 11 14 13 L 14 19"/>
      <!-- Salarié droite -->
      <circle cx="18" cy="9" r="1.5"/>
      <path d="M 16 19 L 16 13 Q 16 11 18 11 Q 20 11 20 13 L 20 19"/>
    </symbol>
    <symbol id="tower" viewBox="0 0 24 24" fill="none" stroke="currentColor" stroke-width="1.5" stroke-linecap="round" stroke-linejoin="round">
      <!-- Signature NCF : équerres aux coins opposés -->
      <path d="M 1 4 L 1 1 L 4 1" stroke-width="1"/>
      <path d="M 20 23 L 23 23 L 23 20" stroke-width="1"/>
      <!-- Façade de la tour -->
      <rect x="7" y="4" width="10" height="16"/>
      <!-- Étages -->
      <line x1="7" y1="8" x2="17" y2="8"/>
      <line x1="7" y1="12" x2="17" y2="12"/>
      <line x1="7" y1="16" x2="17" y2="16"/>
      <!-- Trame verticale centrale -->
      <line x1="12" y1="4" x2="12" y2="16"/>
      <!-- Porte centrale -->
      <rect x="10.5" y="17" width="3" height="3"/>
    </symbol>
  </defs>
</svg>